<?xml version="1.0" encoding="UTF-8" standalone="no"?>
<!-- Created with Inkscape (http://www.inkscape.org/) -->

<svg
   version="1.1"
   id="svg1"
   width="2560"
   height="500"
   viewBox="0 0 2560 500"
   sodipodi:docname="banner.svg"
   inkscape:version="1.4.3 (0d15f75042, 2025-12-25)"
   xmlns:inkscape="http://www.inkscape.org/namespaces/inkscape"
   xmlns:sodipodi="http://sodipodi.sourceforge.net/DTD/sodipodi-0.dtd"
   xmlns="http://www.w3.org/2000/svg"
   xmlns:svg="http://www.w3.org/2000/svg">
  <defs
     id="defs1">
    <clipPath
       clipPathUnits="userSpaceOnUse"
       id="clipPath7">
      <path
         d="M -1924.5471,0 H -4.5470251 V -900.00002 H -1924.5471 Z"
         id="path7" />
    </clipPath>
    <clipPath
       clipPathUnits="userSpaceOnUse"
       id="clipPath9">
      <path
         d="M -1725.1014,69.501802 H 194.89868 V -830.49822 H -1725.1014 Z"
         id="path9" />
    </clipPath>
    <clipPath
       clipPathUnits="userSpaceOnUse"
       id="clipPath14">
      <path
         d="M -1652.2711,94.8814 H 267.72893 V -805.11862 H -1652.2711 Z"
         id="path14" />
    </clipPath>
    <clipPath
       clipPathUnits="userSpaceOnUse"
       id="clipPath17">
      <path
         d="M -1766.2212,450.00011 H 153.77888 V -449.99991 H -1766.2212 Z"
         id="path17" />
    </clipPath>
    <clipPath
       clipPathUnits="userSpaceOnUse"
       id="clipPath19">
      <path
         d="M -1765.2391,415.60561 H 154.76093 V -484.39441 H -1765.2391 Z"
         id="path19" />
    </clipPath>
    <clipPath
       clipPathUnits="userSpaceOnUse"
       id="clipPath21">
      <path
         d="M -1762.1904,519.80501 H 157.80968 V -380.19501 H -1762.1904 Z"
         id="path21" />
    </clipPath>
    <clipPath
       clipPathUnits="userSpaceOnUse"
       id="clipPath23">
      <path
         d="M -1924.5471,795.48302 H -4.5470251 V -104.517 H -1924.5471 Z"
         id="path23" />
    </clipPath>
    <clipPath
       clipPathUnits="userSpaceOnUse"
       id="clipPath25">
      <path
         d="m -1734.1887,644.80421 h 1920 v -900.00002 h -1920 z"
         id="path25" />
    </clipPath>
    <clipPath
       clipPathUnits="userSpaceOnUse"
       id="clipPath28">
      <path
         d="M -1924.5471,900.00002 H -4.5470251 V 0 H -1924.5471 Z"
         id="path28" />
    </clipPath>
    <clipPath
       clipPathUnits="userSpaceOnUse"
       id="clipPath30">
      <path
         d="M -1658.9448,795.48302 H 261.05521 V -104.517 H -1658.9448 Z"
         id="path30" />
    </clipPath>
    <clipPath
       clipPathUnits="userSpaceOnUse"
       id="clipPath33">
      <path
         d="M -199.44561,69.501802 H 1720.5544 V -830.49822 H -199.44561 Z"
         id="path33" />
    </clipPath>
    <clipPath
       clipPathUnits="userSpaceOnUse"
       id="clipPath38">
      <path
         d="m -272.2759,94.8814 h 1920 v -900.00002 h -1920 z"
         id="path38" />
    </clipPath>
    <clipPath
       clipPathUnits="userSpaceOnUse"
       id="clipPath41">
      <path
         d="m -158.3259,450.00011 h 1920 v -900.00002 h -1920 z"
         id="path41" />
    </clipPath>
    <clipPath
       clipPathUnits="userSpaceOnUse"
       id="clipPath43">
      <path
         d="m -159.3078,415.60561 h 1920 v -900.00002 h -1920 z"
         id="path43" />
    </clipPath>
    <clipPath
       clipPathUnits="userSpaceOnUse"
       id="clipPath45">
      <path
         d="m -162.3567,519.80501 h 1920 v -900.00002 h -1920 z"
         id="path45" />
    </clipPath>
  </defs>
  <sodipodi:namedview
     id="namedview1"
     pagecolor="#ffffff"
     bordercolor="#000000"
     borderopacity="0.25"
     inkscape:showpageshadow="2"
     inkscape:pageopacity="0.0"
     inkscape:pagecheckerboard="0"
     inkscape:deskcolor="#d1d1d1"
     inkscape:zoom="0.33352791"
     inkscape:cx="722.57822"
     inkscape:cy="638.62722"
     inkscape:window-width="2560"
     inkscape:window-height="1371"
     inkscape:window-x="0"
     inkscape:window-y="32"
     inkscape:window-maximized="1"
     inkscape:current-layer="layer-MC0">
    <inkscape:page
       x="0"
       y="0"
       inkscape:label="1"
       id="page1"
       width="2560"
       height="500"
       margin="0"
       bleed="0" />
  </sodipodi:namedview>
  <g
     id="layer-MC0"
     inkscape:groupmode="layer"
     inkscape:label="Capa 1">
    <path
       id="path1"
       d="m 1115.4585,355.42614 h -11.4165 v -4.4376 h 2.854 v -13.3226 h -2.854 v -4.4376 h 11.4165 v 4.4376 h -2.8542 v 13.3226 h 2.8542 z m 21.8826,-12.3647 -4.4376,7.9271 h -4.4376 l -4.4376,-7.9271 v 12.3647 h -5.7083 v -22.1978 h 6.021 l 6.3437,11.7293 6.3436,-11.7293 h 6.0211 v 22.1978 h -5.7083 z m 9.5179,-9.8331 h 13.3128 c 2.2214,0 3.8342,0.5034 4.8384,1.5053 1.0019,1.0043 1.5053,2.617 1.5053,4.8383 v 3.1669 c 0,2.2237 -0.5034,3.8365 -1.5053,4.8384 -1.0042,1.0043 -2.617,1.5053 -4.8384,1.5053 h -7.6045 v 6.3436 h -5.7083 z m 13.9482,6.3436 c 0,-1.2707 -0.6354,-1.906 -1.9061,-1.906 h -6.3338 v 6.979 h 6.3338 c 1.2707,0 1.9061,-0.6354 1.9061,-1.9061 z m 8.5673,-6.3436 h 13.313 c 2.2212,0 3.834,0.5034 4.8384,1.5053 1.0018,1.0043 1.5051,2.617 1.5051,4.8383 v 2.8542 c 0,1.7544 -0.2907,3.1179 -0.8698,4.0954 -0.5816,0.9727 -1.5053,1.6129 -2.776,1.9256 l 3.9587,6.979 h -6.1775 l -3.646,-6.6564 h -4.4376 v 6.6564 h -5.7083 z m 13.9482,6.3436 c 0,-1.2707 -0.6352,-1.906 -1.9059,-1.906 h -6.334 v 6.6662 h 6.334 c 1.2707,0 1.9059,-0.6353 1.9059,-1.906 z m 26.4792,15.8542 h -17.5941 v -22.1978 h 17.5941 v 4.4376 h -11.8858 v 4.2811 h 9.3541 v 4.4378 h -9.3541 v 4.6037 h 11.8858 z m 1.879,-4.594 c 5.7866,0.3127 9.7061,0.4692 11.7587,0.4692 0.4888,0 0.8725,-0.1396 1.1535,-0.4203 0.2859,-0.2859 0.43,-0.6744 0.43,-1.1632 v -2.8541 h -7.2918 c -2.2163,0 -3.8291,-0.501 -4.8383,-1.5053 -1.0044,-1.0019 -1.5053,-2.6147 -1.5053,-4.8384 v -0.9481 c 0,-2.2213 0.5009,-3.834 1.5053,-4.8383 1.0092,-1.0019 2.622,-1.5053 4.8383,-1.5053 h 11.1331 v 4.4376 h -9.8624 c -1.2707,0 -1.906,0.6353 -1.906,1.906 v 0.6354 c 0,1.2707 0.6353,1.906 1.906,1.906 h 5.7083 c 2.0722,0 3.5922,0.4862 4.5647,1.4564 0.9701,0.9725 1.4564,2.4925 1.4564,4.5647 v 1.5834 c 0,2.0722 -0.4863,3.5946 -1.4564,4.5647 -0.9725,0.9725 -2.4925,1.4564 -4.5647,1.4564 -1.0825,0 -2.2261,-0.019 -3.4309,-0.059 l -2.9127,-0.1278 c -2.1577,-0.1058 -4.3864,-0.2493 -6.6858,-0.4398 z m 32.3707,4.594 h -11.4167 v -4.4376 h 2.8542 v -13.3226 h -2.8542 v -4.4376 h 11.4167 v 4.4376 h -2.8542 v 13.3226 h 2.8542 z m 2.2236,0 z m 14.8964,-16.1669 c 0,-1.2707 -0.633,-1.9061 -1.8963,-1.9061 h -5.3954 c -1.2659,0 -1.8964,0.6354 -1.8964,1.9061 v 10.1459 c 0,1.2657 0.6305,1.8962 1.8964,1.8962 h 5.3954 c 1.2633,0 1.8963,-0.6305 1.8963,-1.8962 z m 5.7083,10.1459 c 0,2.2163 -0.5034,3.8266 -1.5053,4.8285 -1.0043,1.0043 -2.6147,1.5053 -4.8286,1.5053 h -7.9271 c -2.2237,0 -3.8365,-0.501 -4.8384,-1.5053 -1.0042,-1.0019 -1.5053,-2.6122 -1.5053,-4.8285 v -10.1459 c 0,-2.2213 0.5011,-3.8342 1.5053,-4.8384 1.0019,-1.002 2.6147,-1.5053 4.8384,-1.5053 h 7.9271 c 2.2139,0 3.8243,0.5033 4.8286,1.5053 1.0019,1.0042 1.5053,2.6171 1.5053,4.8384 z m -12.5211,-17.4768 1.906,-5.3858 h 5.7083 l -3.4895,5.3858 z m 35.0366,23.4978 h -6.0211 l -7.6046,-13.3128 v 13.3128 h -5.7082 v -22.1978 h 6.0211 l 7.6142,13.3226 v -13.3226 h 5.6986 z m 25.6946,-22.1978 c 2.3851,0 4.1958,0.6206 5.4346,1.8571 1.2365,1.239 1.8571,3.0497 1.8571,5.4346 v 7.6144 c 0,2.3849 -0.6206,4.1981 -1.8571,5.4346 -1.2388,1.2388 -3.0495,1.8571 -5.4346,1.8571 h -12.3648 v -22.1978 z m 1.5834,7.2917 c 0,-1.9012 -0.9529,-2.8541 -2.8541,-2.8541 h -5.3858 v 13.3226 h 5.3858 c 1.9012,0 2.8541,-0.9506 2.8541,-2.8541 z m 26.4792,14.9061 h -17.5941 v -22.1978 h 17.5941 v 4.4376 h -11.8858 v 4.2811 h 9.3541 v 4.4378 h -9.3541 v 4.6037 h 11.8858 z m 29.1719,-0.3127 c -4.7113,0.4153 -8.6211,0.6255 -11.7294,0.6255 -2.0722,0 -3.5945,-0.4839 -4.5647,-1.4564 -0.9726,-0.9701 -1.4564,-2.4925 -1.4564,-4.5647 v -10.1459 c 0,-2.2213 0.501,-3.834 1.5052,-4.8383 1.002,-1.0019 2.6147,-1.5053 4.8385,-1.5053 h 11.4068 v 4.4376 h -10.146 c -1.2658,0 -1.8962,0.6353 -1.8962,1.906 v 10.1459 c 0,0.4888 0.1396,0.8773 0.4203,1.1632 0.2859,0.281 0.6499,0.4203 1.0947,0.4203 0.4497,0 0.9384,0 1.4663,-0.015 0.5278,-0.015 1.0751,-0.029 1.642,-0.049 0.5718,-0.019 1.1485,-0.04 1.7301,-0.059 0.5791,-0.025 1.3293,-0.067 2.2482,-0.1263 0.9235,-0.063 2.0722,-0.1396 3.4406,-0.2248 z m 6.5049,0.3127 h -6.1775 l 8.3963,-22.1978 h 6.3435 l 8.4062,22.1978 h -6.1874 l -1.427,-3.9685 h -7.9271 z m 2.8542,-8.0835 h 5.0729 l -2.5317,-7.4579 z m 26.4838,2.3752 c 0,2.0722 -0.4887,3.5946 -1.4662,4.5647 -0.9725,0.9725 -2.4679,1.4564 -4.4864,1.4564 -2.0136,0 -4.1542,-0.1058 -6.4219,-0.3128 v -4.2813 c 1.647,0.1058 3.338,0.1565 5.0729,0.1565 0.4888,0 0.875,-0.1396 1.1632,-0.4203 0.286,-0.2859 0.4301,-0.6744 0.4301,-1.1632 v -12.0519 h -4.1248 v -4.4376 h 9.8331 z m 6.8129,5.7083 h -6.1775 l 8.3963,-22.1978 h 6.3436 l 8.406,22.1978 h -6.1872 l -1.4271,-3.9685 h -7.9271 z m 2.8541,-8.0835 h 5.073 l -2.5317,-7.4579 z m 15.0381,3.4895 c 5.7864,0.3127 9.7059,0.4692 11.7586,0.4692 0.4887,0 0.8724,-0.1396 1.1534,-0.4203 0.2859,-0.2859 0.43,-0.6744 0.43,-1.1632 v -2.8541 h -7.2917 c -2.2163,0 -3.8292,-0.501 -4.8384,-1.5053 -1.0042,-1.0019 -1.5051,-2.6147 -1.5051,-4.8384 v -0.9481 c 0,-2.2213 0.5009,-3.834 1.5051,-4.8383 1.0092,-1.0019 2.6221,-1.5053 4.8384,-1.5053 h 11.1332 v 4.4376 h -9.8625 c -1.2707,0 -1.9061,0.6353 -1.9061,1.906 v 0.6354 c 0,1.2707 0.6354,1.906 1.9061,1.906 h 5.7083 c 2.0722,0 3.5921,0.4862 4.5646,1.4564 0.9702,0.9725 1.4564,2.4925 1.4564,4.5647 v 1.5834 c 0,2.0722 -0.4862,3.5946 -1.4564,4.5647 -0.9725,0.9725 -2.4924,1.4564 -4.5646,1.4564 -1.0826,0 -2.2262,-0.019 -3.4309,-0.059 l -2.9128,-0.1278 c -2.1577,-0.1058 -4.3862,-0.2493 -6.6856,-0.4398 z m 28.8835,-17.6038 h 6.021 l 5.2391,10.7812 5.2294,-10.7812 h 6.0211 l -8.3963,16.3331 v 5.8647 h -5.7083 v -5.8647 z m 33.3016,0 h 12.6776 c 2.0722,0 3.592,0.474 4.5646,1.4173 0.9774,0.9384 1.4661,2.3702 1.4661,4.291 0,1.2707 -0.2785,2.3043 -0.8307,3.0984 -0.5475,0.7893 -1.2219,1.344 -2.0234,1.6618 1.7056,0.4642 2.8663,1.6029 3.4798,3.421 0.215,0.6597 0.3224,1.4222 0.3224,2.2873 0,2.0722 -0.4886,3.5945 -1.4661,4.5646 -0.9726,0.9725 -2.4901,1.4564 -4.5549,1.4564 h -13.6354 z m 13.9481,15.2188 c 0,-1.2633 -0.6352,-1.8962 -1.9059,-1.8962 h -6.3339 v 4.4376 h 6.3339 c 1.2707,0 1.9059,-0.6353 1.9059,-1.906 z m -0.9481,-8.8752 c 0,-1.2707 -0.6353,-1.906 -1.9059,-1.906 h -5.3858 v 4.4474 h 5.3858 c 1.2706,0 1.9059,-0.6353 1.9059,-1.906 z m 23.7765,-0.3127 c 0,-1.2707 -0.633,-1.9061 -1.8964,-1.9061 h -5.3954 c -1.2658,0 -1.8962,0.6354 -1.8962,1.9061 v 10.1459 c 0,1.2657 0.6304,1.8962 1.8962,1.8962 h 5.3954 c 1.2634,0 1.8964,-0.6305 1.8964,-1.8962 z m 5.7081,10.1459 c 0,2.2163 -0.5032,3.8266 -1.5051,4.8285 -1.0044,1.0043 -2.6147,1.5053 -4.8287,1.5053 h -7.9269 c -2.2238,0 -3.8365,-0.501 -4.8385,-1.5053 -1.0042,-1.0019 -1.5052,-2.6122 -1.5052,-4.8285 v -10.1459 c 0,-2.2213 0.501,-3.8342 1.5052,-4.8384 1.002,-1.002 2.6147,-1.5053 4.8385,-1.5053 h 7.9269 c 2.214,0 3.8243,0.5033 4.8287,1.5053 1.0019,1.0042 1.5051,2.6171 1.5051,4.8384 z m 8.8899,1.5834 h 11.5731 v 4.4376 h -17.2814 v -22.1978 h 5.7083 z m 13.1297,-0.1564 c 5.7864,0.3127 9.7061,0.4692 11.7587,0.4692 0.4886,0 0.8723,-0.1396 1.1533,-0.4203 0.2859,-0.2859 0.4302,-0.6744 0.4302,-1.1632 v -2.8541 h -7.2918 c -2.2164,0 -3.8291,-0.501 -4.8383,-1.5053 -1.0044,-1.0019 -1.5053,-2.6147 -1.5053,-4.8384 v -0.9481 c 0,-2.2213 0.5009,-3.834 1.5053,-4.8383 1.0092,-1.0019 2.6219,-1.5053 4.8383,-1.5053 h 11.1331 v 4.4376 h -9.8624 c -1.2707,0 -1.906,0.6353 -1.906,1.906 v 0.6354 c 0,1.2707 0.6353,1.906 1.906,1.906 h 5.7082 c 2.0722,0 3.5922,0.4862 4.5646,1.4564 0.9702,0.9725 1.4566,2.4925 1.4566,4.5647 v 1.5834 c 0,2.0722 -0.4864,3.5946 -1.4566,4.5647 -0.9724,0.9725 -2.4924,1.4564 -4.5646,1.4564 -1.0826,0 -2.2262,-0.019 -3.4308,-0.059 l -2.9127,-0.1278 c -2.1579,-0.1058 -4.3864,-0.2493 -6.6858,-0.4398 z m 25.2352,4.594 h -6.1775 l 8.3963,-22.1978 h 6.3436 l 8.406,22.1978 h -6.1872 l -1.427,-3.9685 h -7.9271 z m 2.8541,-8.0835 h 5.073 l -2.5316,-7.4579 z m 15.0381,3.4895 c 5.7864,0.3127 9.706,0.4692 11.7587,0.4692 0.4887,0 0.8723,-0.1396 1.1533,-0.4203 0.2859,-0.2859 0.4302,-0.6744 0.4302,-1.1632 v -2.8541 h -7.2918 c -2.2165,0 -3.8291,-0.501 -4.8384,-1.5053 -1.0043,-1.0019 -1.5053,-2.6147 -1.5053,-4.8384 v -0.9481 c 0,-2.2213 0.501,-3.834 1.5053,-4.8383 1.0093,-1.0019 2.6219,-1.5053 4.8384,-1.5053 h 11.1331 v 4.4376 h -9.8624 c -1.2707,0 -1.9061,0.6353 -1.9061,1.906 v 0.6354 c 0,1.2707 0.6354,1.906 1.9061,1.906 h 5.7083 c 2.0722,0 3.592,0.4862 4.5647,1.4564 0.9701,0.9725 1.4564,2.4925 1.4564,4.5647 v 1.5834 c 0,2.0722 -0.4863,3.5946 -1.4564,4.5647 -0.9727,0.9725 -2.4925,1.4564 -4.5647,1.4564 -1.0825,0 -2.2261,-0.019 -3.4309,-0.059 l -2.9128,-0.1278 c -2.1576,-0.1058 -4.3863,-0.2493 -6.6857,-0.4398 z m 49.0213,4.594 h -17.5939 v -22.1978 h 17.5939 v 4.4376 h -11.8856 v 4.2811 h 9.3541 v 4.4378 h -9.3541 v 4.6037 h 11.8856 z m 21.8753,0 h -6.0211 l -7.6045,-13.3128 v 13.3128 h -5.7083 v -22.1978 h 6.0211 l 7.6143,13.3226 v -13.3226 h 5.6985 z m 30.9241,0 h -17.5941 v -22.1978 h 17.5941 v 4.4376 h -11.8858 v 4.2811 h 9.3541 v 4.4378 h -9.3541 v 4.6037 h 11.8858 z m 8.2521,-4.4376 h 11.5729 v 4.4376 h -17.2812 v -22.1978 h 5.7083 z m 27.2658,4.4376 h -6.1774 l 8.3962,-22.1978 h 6.3437 l 8.4061,22.1978 h -6.1873 l -1.427,-3.9685 h -7.9271 z m 2.8542,-8.0835 h 5.0729 l -2.5315,-7.4579 z m 32.1849,7.7708 c -4.7112,0.4153 -8.621,0.6255 -11.7293,0.6255 -2.0722,0 -3.5946,-0.4839 -4.5647,-1.4564 -0.9726,-0.9701 -1.4564,-2.4925 -1.4564,-4.5647 v -10.1459 c 0,-2.2213 0.5009,-3.834 1.5052,-4.8383 1.002,-1.0019 2.6147,-1.5053 4.8385,-1.5053 h 11.4067 v 4.4376 h -10.1459 c -1.2658,0 -1.8962,0.6353 -1.8962,1.906 v 10.1459 c 0,0.4888 0.1396,0.8773 0.4203,1.1632 0.2859,0.281 0.6499,0.4203 1.0947,0.4203 0.4497,0 0.9383,0 1.4662,-0.015 0.5279,-0.015 1.0752,-0.029 1.6421,-0.049 0.5717,-0.019 1.1485,-0.04 1.7301,-0.059 0.5791,-0.025 1.3293,-0.067 2.2482,-0.1263 0.9235,-0.063 2.0721,-0.1396 3.4405,-0.2248 z m 13.3275,0.3127 h -5.7083 v -17.7602 h -6.6662 v -4.4376 h 19.0309 v 4.4376 h -6.6564 z m 23.141,-16.1669 c 0,-1.2707 -0.6328,-1.9061 -1.8962,-1.9061 h -5.3955 c -1.2657,0 -1.8962,0.6354 -1.8962,1.9061 v 10.1459 c 0,1.2657 0.6305,1.8962 1.8962,1.8962 h 5.3955 c 1.2634,0 1.8962,-0.6305 1.8962,-1.8962 z m 5.7083,10.1459 c 0,2.2163 -0.5033,3.8266 -1.5051,4.8285 -1.0044,1.0043 -2.6147,1.5053 -4.8287,1.5053 h -7.9271 c -2.2236,0 -3.8365,-0.501 -4.8384,-1.5053 -1.0043,-1.0019 -1.5053,-2.6122 -1.5053,-4.8285 v -10.1459 c 0,-2.2213 0.501,-3.8342 1.5053,-4.8384 1.0019,-1.002 2.6148,-1.5053 4.8384,-1.5053 h 7.9271 c 2.214,0 3.8243,0.5033 4.8287,1.5053 1.0018,1.0042 1.5051,2.6171 1.5051,4.8384 z m 0,0"
       style="fill:#231f20;fill-opacity:1;fill-rule:nonzero;stroke:none;stroke-width:1.33333"
       aria-label="IMPRESIÓN DE CAJAS Y BOLSAS EN EL ACTO" />
    <path
       id="path2"
       d="m 1103.1012,163.36984 v 122.2397 h 27.9355 v -122.2397 z m 33.028,49.537 v 20.3799 h 9.7256 c 28.864,0 41.825,-11.4264 41.825,-37.5046 0,-21.6115 -14.2023,-32.4123 -42.5973,-32.4123 h -8.9533 v 20.5265 h 9.7256 c 9.2564,0 13.1173,4.7797 13.1173,15.2774 0,8.7971 -4.3204,13.7331 -13.1173,13.7331 z m 100.6379,-49.537 -31.0241,122.2397 h 27.7791 l 21.6113,-95.6922 9.5691,49.6935 h -16.206 l -4.0173,20.3798 h 24.3873 l 5.7083,25.6189 h 29.4798 l -31.0242,-122.2397 z m 151.4164,17.2814 c 8.1813,0.4594 12.1887,4.4767 12.1887,12.345 v 12.9709 h 29.3332 v -11.4265 c 0,-22.3737 -13.8992,-33.8 -41.5219,-33.9565 z m 0,107.4312 c 27.6227,-0.6256 41.5219,-12.355 41.5219,-35.1979 v -13.1173 h -29.3332 v 16.8219 c 0,7.1059 -4.0074,10.9571 -12.1887,11.7293 z m -45.6858,-35.9702 c 0,22.9994 13.2737,34.8852 39.9678,35.9702 v -19.764 c -7.5557,-1.0751 -11.2603,-4.9362 -11.2603,-11.7293 v -63.5929 c 0,-7.2525 3.7046,-11.2601 11.2603,-12.1887 v -20.0669 c -26.6941,1.2315 -39.9678,12.345 -39.9678,33.3406 z m 192.3176,-88.7424 -11.27,18.9821 11.4263,23.3024 29.4798,-42.2845 z m -27.6325,79.7891 5.8648,-8.6406 23.7714,51.0912 h 30.0956 l -46.9174,-98.3214 -12.8144,20.8391 z m -4.3202,42.4506 v -122.2397 h -28.3949 v 122.2397 z m 167.3168,-122.2397 -32.7248,78.8704 v 43.3693 h 28.0917 v -51.5506 l 34.2694,-70.6891 z m -38.4331,0 h -29.0204 l 32.5685,70.6891 12.6579,-30.4085 z m 119.4734,0 -31.0242,122.2397 h 27.779 l 21.6114,-95.6922 9.5692,49.6935 h -16.2061 l -4.0173,20.3798 h 24.3873 l 5.7083,25.6189 h 29.4798 l -31.0242,-122.2397 z m 0,0"
       style="fill:#1d1e21;fill-opacity:1;fill-rule:nonzero;stroke:none;stroke-width:1.33333"
       aria-label="PACKYA" />
    <path
       id="path3"
       d="M 633.17708,205.88384 813.29687,320.54674 995.2222,205.88384 814.20016,91.672029 Z"
       style="fill:#e91193;fill-opacity:1;fill-rule:nonzero;stroke:none;stroke-width:1.33333" />
    <path
       id="path4"
       d="m 616.47422,217.16954 v 90.7372 l 197.7258,124.1423 v -91.1883 z"
       style="fill:#0c101d;fill-opacity:1;fill-rule:nonzero;stroke:none;stroke-width:1.33333" />
    <path
       id="path5"
       d="m 1011.9255,217.16954 v 89.8339 l -197.72563,125.0456 v -91.1883 z"
       style="fill:#d2c700;fill-opacity:1;fill-rule:nonzero;stroke:none;stroke-width:1.33333" />
    <path
       id="path6"
       d="m 0,0 h -354.512 c 30.495,-29 58.054,-60.775 82.236,-94.881 l 72.83,25.379 z"
       style="fill:#1f2d57;fill-opacity:1;fill-rule:nonzero;stroke:none;stroke-width:2.00063"
       transform="matrix(0.80216194,0,0,-0.55371084,2569.6439,2.9982499)"
       clip-path="url(#clipPath7)" />
    <path
       id="path8"
       d="M 0,0 199.446,-58.002 V 69.502 Z"
       style="fill:#23457f;fill-opacity:1;fill-rule:nonzero;stroke:none;stroke-width:2.00063"
       transform="matrix(0.80216194,0,0,-0.55371084,2409.6562,41.482151)"
       clip-path="url(#clipPath9)" />
    <path
       id="path10"
       d="M 0,0 199.446,69.502 Z"
       style="fill:#23457f;fill-opacity:1;fill-rule:nonzero;stroke:none;stroke-width:2.00063"
       transform="matrix(0.80216194,0,0,-0.55371084,2409.6562,41.482151)"
       clip-path="url(#clipPath9)" />
    <path
       id="path11"
       d="M 0,0 199.446,-218.015 V -58.002 Z"
       style="fill:#38979e;fill-opacity:1;fill-rule:nonzero;stroke:none;stroke-width:2.00063"
       transform="matrix(0.80216194,0,0,-0.55371084,2409.6562,41.482151)"
       clip-path="url(#clipPath9)" />
    <path
       id="path12"
       d="M 2409.6562,41.482151 Z"
       style="fill:#38979e;fill-opacity:1;fill-rule:nonzero;stroke:none;stroke-width:1.33333" />
    <path
       id="path13"
       d="M 0,0 C 10.177,-14.354 19.723,-29.142 28.667,-44.292 L 272.276,-192.635 72.83,25.38 Z"
       style="fill:#2c6a95;fill-opacity:1;fill-rule:nonzero;stroke:none;stroke-width:2.00063"
       transform="matrix(0.80216194,0,0,-0.55371084,2351.2346,55.53511)"
       clip-path="url(#clipPath14)" />
    <path
       id="path15"
       d="m 2409.6562,41.482151 -58.4215,14.053181 z"
       style="fill:#2c6a95;fill-opacity:1;fill-rule:nonzero;stroke:none;stroke-width:1.33333" />
    <path
       id="path16"
       d="M 0,0 C 0,-6.823 -0.153,-13.613 -0.377,-20.384 H 158.326 V 162.484 L -0.982,34.395 C -0.343,23.005 0,11.541 0,0"
       style="fill:#9dd637;fill-opacity:1;fill-rule:nonzero;stroke:none;stroke-width:2.00063"
       transform="matrix(0.80216194,0,0,-0.55371084,2442.6408,252.16819)"
       clip-path="url(#clipPath17)" />
    <path
       id="path18"
       d="M 0,0 159.308,128.089 -84.301,276.432 C -35.56,193.877 -5.611,100.008 0,0"
       style="fill:#39b581;fill-opacity:1;fill-rule:nonzero;stroke:none;stroke-width:2.00063"
       transform="matrix(0.80216194,0,0,-0.55371084,2441.8532,233.12358)"
       clip-path="url(#clipPath19)" />
    <path
       id="path20"
       d="M 0,0 162.357,-123.288 V 49.421 H 3.654 C 3.102,32.777 1.873,16.298 0,0"
       style="fill:#f8a41f;fill-opacity:1;fill-rule:nonzero;stroke:none;stroke-width:2.00063"
       transform="matrix(0.80216194,0,0,-0.55371084,2439.4075,290.81992)"
       clip-path="url(#clipPath21)" />
    <path
       id="path22"
       d="M 0,0 V 152.39 L -158.326,0 Z"
       style="fill:#d31763;fill-opacity:1;fill-rule:nonzero;stroke:none;stroke-width:2.00063"
       transform="matrix(0.80216194,0,0,-0.55371084,2569.6439,443.46582)"
       clip-path="url(#clipPath23)" />
    <path
       id="path24"
       d="M 0,0 32.032,-150.679 190.358,1.711 28.002,124.999 C 23.047,81.894 13.56,40.086 0,0"
       style="fill:#f04141;fill-opacity:1;fill-rule:nonzero;stroke:none;stroke-width:2.00063"
       transform="matrix(0.80216194,0,0,-0.55371084,2416.9456,360.03333)"
       clip-path="url(#clipPath25)" />
    <path
       id="path26"
       d="m 2416.9457,360.03333 c -14.5641,29.72043 -34.9703,57.72546 -60.3579,83.4326 h 86.0528 z"
       style="fill:#811154;fill-opacity:1;fill-rule:nonzero;stroke:none;stroke-width:1.33333" />
    <path
       id="path27"
       d="M 0,0 V 104.517 H -158.326 Z"
       style="fill:#8b2696;fill-opacity:1;fill-rule:nonzero;stroke:none;stroke-width:2.00063"
       transform="matrix(0.80216194,0,0,-0.55371084,2569.6439,501.33802)"
       clip-path="url(#clipPath28)" />
    <path
       id="path29"
       d="M 0,0 C -25.746,-37.767 -55.565,-72.806 -88.91,-104.517 H 265.602 L 107.276,0 Z"
       style="fill:#2e2051;fill-opacity:1;fill-rule:nonzero;stroke:none;stroke-width:2.00063"
       transform="matrix(0.80216194,0,0,-0.55371084,2356.5879,443.46582)"
       clip-path="url(#clipPath30)" />
    <path
       id="path31"
       d="M -4.3997112e-7,0 H 286.27209 C 261.64787,16.059862 239.39288,33.656487 219.86567,52.543992 L 161.0547,38.489398 Z"
       style="fill:#1f2d57;fill-opacity:1;fill-rule:nonzero;stroke:none;stroke-width:1.33333" />
    <path
       id="path32"
       d="M 0,0 -199.446,-58.002 V 69.502 Z"
       style="fill:#23457f;fill-opacity:1;fill-rule:nonzero;stroke:none;stroke-width:1.99385"
       transform="matrix(0.80751028,0,0,-0.55378835,161.05438,38.489288)"
       clip-path="url(#clipPath33)" />
    <path
       id="path34"
       d="M 0,0 -199.446,69.502 Z"
       style="fill:#23457f;fill-opacity:1;fill-rule:nonzero;stroke:none;stroke-width:1.99385"
       transform="matrix(0.80751028,0,0,-0.55378835,161.05438,38.489288)"
       clip-path="url(#clipPath33)" />
    <path
       id="path35"
       d="M 0,0 -199.446,-218.015 V -58.002 Z"
       style="fill:#38979e;fill-opacity:1;fill-rule:nonzero;stroke:none;stroke-width:1.99385"
       transform="matrix(0.80751028,0,0,-0.55378835,161.05438,38.489288)"
       clip-path="url(#clipPath33)" />
    <path
       id="path36"
       d="M 161.05438,38.489288 Z"
       style="fill:#38979e;fill-opacity:1;fill-rule:nonzero;stroke:none;stroke-width:1.33333" />
    <path
       id="path37"
       d="M 0,0 C -10.178,-14.354 -19.723,-29.142 -28.667,-44.292 L -272.276,-192.635 -72.83,25.38 Z"
       style="fill:#2c6a95;fill-opacity:1;fill-rule:nonzero;stroke:none;stroke-width:1.99385"
       transform="matrix(0.80751028,0,0,-0.55378835,219.86559,52.544214)"
       clip-path="url(#clipPath38)" />
    <path
       id="path39"
       d="m 161.05438,38.489288 58.81098,14.055148 z"
       style="fill:#2c6a95;fill-opacity:1;fill-rule:nonzero;stroke:none;stroke-width:1.33333" />
    <path
       id="path40"
       d="M 0,0 C 0,-6.823 0.153,-13.613 0.377,-20.384 H -158.326 V 162.484 L 0.982,34.395 C 0.343,23.005 0,11.541 0,0"
       style="fill:#9dd637;fill-opacity:1;fill-rule:nonzero;stroke:none;stroke-width:1.99385"
       transform="matrix(0.80751028,0,0,-0.55378835,127.8498,249.20482)"
       clip-path="url(#clipPath41)" />
    <path
       id="path42"
       d="M 0,0 -159.308,128.089 84.301,276.432 C 35.56,193.877 5.611,100.008 0,0"
       style="fill:#39b581;fill-opacity:1;fill-rule:nonzero;stroke:none;stroke-width:1.99385"
       transform="matrix(0.80751028,0,0,-0.55378835,128.64269,230.15755)"
       clip-path="url(#clipPath43)" />
    <path
       id="path44"
       d="M 0,0 -162.357,-123.288 V 49.421 H -3.654 C -3.102,32.777 -1.873,16.298 0,0"
       style="fill:#f8a41f;fill-opacity:1;fill-rule:nonzero;stroke:none;stroke-width:1.99385"
       transform="matrix(0.80751028,0,0,-0.55378835,131.10471,287.86196)"
       clip-path="url(#clipPath45)" />
    <path
       id="path46"
       d="M -4.3997112e-7,440.52923 V 356.13742 L 127.84988,440.52923 Z"
       style="fill:#d31763;fill-opacity:1;fill-rule:nonzero;stroke:none;stroke-width:1.33333" />
    <path
       id="path47"
       d="M 153.71638,357.08506 127.85021,440.52933 3.3381387e-4,356.13753 131.10448,287.86207 c 4.0004,23.87105 11.66206,47.02383 22.6119,69.22299"
       style="fill:#f04141;fill-opacity:1;fill-rule:nonzero;stroke:none;stroke-width:1.33333" />
    <path
       id="path48"
       d="m 153.71638,357.08506 c 14.66116,29.72459 35.20341,57.73354 60.7603,83.44427 h -86.62647 z"
       style="fill:#811154;fill-opacity:1;fill-rule:nonzero;stroke:none;stroke-width:1.33333" />
    <path
       id="path49"
       d="m -4.3997112e-7,498.40953 v -57.8803 H 127.84988 Z"
       style="fill:#8b2696;fill-opacity:1;fill-rule:nonzero;stroke:none;stroke-width:1.33333" />
    <path
       id="path50"
       d="m 214.47644,440.52923 c 20.79015,20.91492 44.86931,40.31911 71.79573,57.8803 H 8.5041512e-5 L 127.84996,440.52923 Z"
       style="fill:#2e2051;fill-opacity:1;fill-rule:nonzero;stroke:none;stroke-width:1.33333" />
  </g>
</svg>
